{"glyphs":{"0":{"ha":599,"x_min":69,"x_max":529,"o":"m 69 203 l 69 203 l 69 942 q 228 1010 69 951 q 410 1069 386 1069 q 481 1013 433 1069 q 529 910 529 956 l 529 910 l 529 129 q 377 59 529 118 q 191 0 225 0 q 113 60 157 0 q 69 203 69 119 z m 307 128 l 307 128 q 361 150 333 128 l 361 150 l 361 838 q 290 940 361 940 l 290 940 q 236 919 263 940 l 236 919 l 236 231 q 307 128 236 128 z m 268 457 l 268 457 l 268 569 q 289 579 268 571 q 313 588 310 588 q 323 579 317 588 q 329 561 329 571 l 329 561 l 329 442 q 309 433 329 440 q 284 425 289 425 q 274 433 279 425 q 268 457 268 442 z "},"1":{"ha":333,"x_min":-15,"x_max":306,"o":"m 250 975 l 250 975 l 250 232 q 263 178 250 194 q 306 163 275 163 l 306 163 l 306 124 q 22 0 24 0 l 22 0 l 0 44 q 27 54 11 44 q 54 76 43 64 l 54 76 q 83 178 83 110 l 83 178 l 83 864 q 64 912 83 893 q 28 935 44 931 q -15 946 11 940 l -15 946 l -15 976 l 167 1069 q 224 1028 197 1057 q 250 975 250 1000 z "},"2":{"ha":538,"x_min":11,"x_max":539,"o":"m 315 842 q 303 927 315 903 q 265 951 292 951 q 215 924 238 951 l 215 924 l 215 796 q 214 769 215 778 q 203 749 213 760 q 175 731 194 738 l 175 731 l 31 675 l 11 694 q 49 783 49 736 l 49 783 l 49 942 q 195 1010 49 950 q 367 1069 342 1069 q 438 1008 393 1069 q 482 913 482 946 l 482 913 l 482 722 q 401 501 482 649 q 239 244 319 354 l 239 244 l 158 133 q 338 136 313 136 l 338 136 q 431 182 414 136 l 431 182 q 453 181 446 181 l 453 181 l 461 181 l 539 68 q 527 49 535 61 q 492 19 519 38 q 433 0 465 0 l 433 0 l 43 0 q 14 129 14 75 l 14 129 q 89 260 14 147 q 240 498 164 374 q 315 667 315 622 l 315 667 l 315 842 z "},"3":{"ha":569,"x_min":4,"x_max":501,"o":"m 335 171 l 335 200 l 333 297 l 333 356 q 318 479 333 458 l 318 479 q 274 503 301 503 l 274 503 q 178 482 226 503 l 178 482 l 163 475 l 149 525 q 333 617 261 585 l 333 617 l 333 850 q 274 964 333 964 l 274 964 q 233 944 250 964 q 215 897 215 925 l 215 897 l 215 821 q 203 791 215 803 q 150 764 192 779 l 150 764 l 24 715 l 4 735 q 40 826 40 772 l 40 826 l 40 932 q 199 1005 40 942 q 382 1068 358 1068 q 453 1011 406 1068 q 501 908 501 954 l 501 908 l 501 639 q 428 581 501 618 l 428 581 q 500 406 500 497 l 500 406 l 500 128 q 333 42 500 97 q 119 -12 167 -12 l 119 -12 q 94 17 103 -12 q 77 87 85 46 q 63 139 69 128 l 63 139 q 4 165 50 160 l 4 165 l 4 192 q 204 274 169 274 l 204 274 q 213 259 211 274 q 214 199 214 244 q 232 119 214 153 q 279 85 250 85 l 279 85 q 335 171 335 85 l 335 171 z "},"4":{"ha":557,"x_min":1,"x_max":543,"o":"m 319 178 l 319 178 l 319 386 l 33 386 q 15 411 28 386 q 1 451 1 436 q 74 617 1 465 q 230 919 146 769 q 339 1069 314 1069 l 339 1069 q 472 1006 432 1046 l 472 1006 q 488 975 488 990 l 488 975 l 488 468 l 543 468 l 543 421 l 488 386 l 488 232 q 500 178 488 194 q 543 163 513 163 l 543 163 l 543 124 q 260 0 261 0 l 260 0 l 238 44 q 264 54 247 44 q 292 76 281 64 l 292 76 q 319 178 319 111 z m 321 468 l 321 468 l 321 840 l 133 465 q 321 468 319 467 z "},"5":{"ha":599,"x_min":53,"x_max":529,"o":"m 429 919 l 236 919 l 236 664 q 261 608 236 608 l 261 608 q 347 644 267 608 q 444 681 428 681 l 444 681 q 503 621 478 681 q 529 476 529 561 l 529 476 l 529 142 q 370 51 529 115 q 188 -14 211 -14 l 188 -14 q 165 10 178 -14 q 133 77 153 33 q 97 150 113 121 q 53 179 81 179 l 53 179 l 53 207 q 111 236 75 217 l 111 236 q 207 285 200 285 l 207 285 q 266 203 228 285 q 324 121 304 121 l 324 121 q 350 132 338 121 q 363 163 363 143 l 363 163 l 363 458 q 328 521 363 521 l 328 521 q 240 488 317 521 q 154 454 164 454 l 154 454 q 94 507 119 454 q 69 636 69 560 l 69 636 l 69 1029 q 107 1056 69 1056 l 107 1056 l 318 1056 q 419 1100 406 1056 l 419 1100 l 451 1101 l 528 988 q 489 940 518 961 q 429 919 460 919 l 429 919 z "},"6":{"ha":599,"x_min":69,"x_max":529,"o":"m 69 203 l 69 203 l 69 638 q 118 830 69 724 q 217 1003 167 936 q 283 1069 267 1069 l 283 1069 q 373 1052 318 1069 q 465 1017 428 1035 l 465 1017 l 503 1000 l 503 958 l 463 958 q 322 869 392 958 q 238 668 251 779 l 238 668 q 412 736 390 736 q 481 672 433 736 q 529 563 529 608 l 529 563 l 529 129 q 377 59 529 118 q 191 0 225 0 q 113 60 157 0 q 69 203 69 119 z m 307 128 l 307 128 q 361 150 333 128 l 361 150 l 361 500 q 335 574 361 544 q 236 603 310 603 l 236 603 l 236 231 q 307 128 236 128 z "},"7":{"ha":514,"x_min":14,"x_max":500,"o":"m 368 919 l 219 919 q 124 874 135 919 l 124 874 l 93 874 l 14 988 q 57 1035 31 1014 q 108 1056 83 1056 l 108 1056 l 294 1056 q 390 1101 379 1056 l 390 1101 l 421 1101 q 470 1005 440 1075 q 500 921 500 935 l 500 921 l 199 0 l 132 0 q 63 118 63 71 l 63 118 l 368 919 z "},"8":{"ha":599,"x_min":69,"x_max":529,"o":"m 69 646 l 69 646 l 69 940 q 228 1009 69 950 q 410 1068 386 1068 q 481 1011 433 1068 q 529 908 529 954 l 529 908 l 529 649 q 446 597 529 622 l 446 597 q 503 548 478 583 q 529 486 529 513 l 529 486 l 529 129 q 377 59 529 118 q 191 0 225 0 q 113 60 157 0 q 69 203 69 119 l 69 203 l 69 432 q 150 489 69 457 l 150 489 q 69 646 69 521 z m 307 128 l 307 128 q 361 150 333 128 l 361 150 l 361 400 q 290 503 361 503 l 290 503 q 236 482 265 503 l 236 482 l 236 231 q 307 128 236 128 z m 307 613 l 307 613 q 361 635 333 613 l 361 635 l 361 836 q 290 939 361 939 l 290 939 q 236 918 265 939 l 236 918 l 236 715 q 307 613 236 613 z "},"9":{"ha":599,"x_min":69,"x_max":529,"o":"m 529 867 l 529 867 l 529 474 q 481 251 529 368 q 382 67 432 133 q 315 0 332 0 l 315 0 q 226 17 281 0 q 133 53 171 35 l 133 53 l 96 69 l 96 111 l 136 111 q 284 222 207 111 q 361 443 361 333 l 361 443 q 187 375 208 375 q 117 439 165 375 q 69 549 69 503 l 69 549 l 69 940 q 222 1010 69 951 q 408 1069 374 1069 q 485 1010 442 1069 q 529 867 529 950 z m 292 942 l 292 942 q 238 919 265 942 l 238 919 l 238 611 q 263 538 238 567 q 363 508 289 508 l 363 508 l 363 839 q 292 942 363 942 z "}," ":{"ha":264,"x_min":null,"x_max":null,"o":""},"!":{"ha":306,"x_min":13,"x_max":293,"o":"m 69 275 l 69 275 l 69 861 q 13 957 69 946 l 13 957 l 13 988 l 153 1067 q 210 1026 183 1054 q 236 972 236 997 l 236 972 l 236 386 q 293 290 236 301 l 293 290 l 293 260 l 153 181 q 96 222 122 193 q 69 275 69 250 z m 257 21 l 257 21 l 257 -64 q 199 -90 257 -68 q 133 -111 142 -111 q 106 -87 124 -111 q 89 -39 89 -64 l 89 -39 l 89 63 q 144 88 89 67 q 213 110 200 110 q 241 85 225 110 q 257 21 257 61 z "},"\"":{"ha":426,"x_min":35,"x_max":392,"o":"m 35 1022 q 79 1048 35 1026 q 132 1069 124 1069 q 158 1046 140 1069 q 175 997 175 1022 l 175 997 l 161 839 q 133 813 161 833 q 93 792 106 792 q 67 815 81 792 q 49 881 53 839 l 49 881 l 35 1022 z m 251 1022 q 296 1048 251 1026 q 349 1069 340 1069 q 374 1046 357 1069 q 392 997 392 1022 l 392 997 l 378 839 q 350 813 378 833 q 310 792 322 792 q 283 815 297 792 q 265 881 269 839 l 265 881 l 251 1022 z "},"#":{"ha":793,"x_min":-94,"x_max":892,"o":"m 208 590 l 26 590 l 26 621 l 110 700 l 246 700 l 322 924 l 424 978 l 458 978 l 363 700 l 589 700 l 665 924 l 767 978 l 801 978 l 707 700 l 892 700 l 892 667 l 808 590 l 669 590 l 597 375 l 771 375 l 771 342 l 688 265 l 560 265 l 488 53 l 383 0 l 353 0 l 442 265 l 214 265 l 142 53 l 38 0 l 7 0 l 97 265 l -94 265 l -94 296 l -11 375 l 135 375 l 208 590 z m 551 590 l 325 590 l 251 375 l 479 375 l 551 590 z "},"%":{"ha":974,"x_min":69,"x_max":904,"o":"m 779 982 l 326 4 l 218 -39 l 188 -35 l 639 942 l 744 986 l 779 982 z m 69 654 l 69 654 l 69 889 q 172 935 69 896 q 290 974 274 974 q 338 936 307 974 q 369 869 369 899 l 369 869 l 369 606 q 270 560 369 599 q 148 522 171 522 q 97 561 125 522 q 69 654 69 600 z m 224 606 l 224 606 q 258 622 242 606 l 258 622 l 258 822 q 214 889 258 889 l 214 889 q 179 874 194 889 l 179 874 l 179 672 q 224 606 179 606 z m 604 133 l 604 133 l 604 368 q 706 414 604 375 q 825 453 808 453 q 873 415 842 453 q 904 349 904 378 l 904 349 l 904 85 q 805 40 904 78 q 683 1 706 1 q 632 40 660 1 q 604 133 604 79 z m 758 85 l 758 85 q 793 101 776 85 l 793 101 l 793 301 q 749 368 793 368 l 749 368 q 714 353 726 368 l 714 353 l 714 151 q 758 85 714 85 z "},"&":{"ha":597,"x_min":69,"x_max":599,"o":"m 261 935 l 261 935 q 236 921 247 935 l 236 921 l 236 554 l 325 554 q 416 594 369 558 q 479 689 463 629 l 479 689 l 528 689 l 528 554 l 599 554 l 585 486 l 528 486 l 528 206 q 585 110 528 121 l 585 110 l 585 79 l 444 0 q 372 57 396 22 l 372 57 q 194 0 231 0 q 114 61 158 0 q 69 203 69 122 l 69 203 l 69 942 q 215 1010 69 951 q 383 1069 360 1069 l 383 1069 q 435 985 397 1069 q 488 874 472 900 q 547 849 503 849 l 547 849 l 547 821 q 444 772 517 807 q 365 736 371 736 l 365 736 q 313 835 344 736 q 261 935 281 935 z m 277 133 q 307 128 289 128 q 361 146 325 128 l 361 146 l 361 486 l 236 486 l 236 264 q 243 181 236 197 q 258 151 250 164 q 277 133 265 138 z "},"'":{"ha":210,"x_min":35,"x_max":175,"o":"m 35 1022 q 79 1048 35 1026 q 132 1069 124 1069 q 158 1046 140 1069 q 175 997 175 1022 l 175 997 l 161 839 q 133 813 161 833 q 93 792 106 792 q 67 815 81 792 q 49 881 53 839 l 49 881 l 35 1022 z "},"(":{"ha":442,"x_min":42,"x_max":414,"o":"m 414 26 l 414 26 l 414 -14 q 261 -76 290 -76 l 261 -76 q 150 -17 214 -76 q 68 160 86 42 l 68 160 q 42 495 42 322 q 68 832 42 668 l 68 832 q 151 1010 88 953 q 261 1068 214 1068 l 261 1068 q 317 1053 279 1068 q 383 1024 356 1039 l 383 1024 l 413 1008 l 413 965 q 281 926 333 965 q 206 763 229 886 q 183 495 183 640 q 206 232 183 350 q 272 70 228 114 q 414 26 317 26 z "},")":{"ha":442,"x_min":42,"x_max":414,"o":"m 42 26 q 183 70 139 26 q 250 232 228 114 q 272 495 272 350 q 249 763 272 640 q 174 926 226 886 q 43 965 122 965 l 43 965 l 43 1008 q 197 1068 153 1068 q 305 1010 242 1068 q 388 832 368 953 l 388 832 q 414 495 414 668 q 388 160 414 322 l 388 160 q 306 -17 369 42 q 194 -76 242 -76 l 194 -76 q 74 -31 167 -76 l 74 -31 l 42 -14 l 42 26 z "},"*":{"ha":479,"x_min":56,"x_max":424,"o":"m 257 1056 l 279 1056 l 279 929 l 326 947 l 408 950 l 424 936 l 325 857 l 424 778 l 407 761 l 328 765 l 279 785 l 279 728 l 224 668 l 200 668 l 200 783 l 153 764 l 72 760 l 56 776 l 156 857 l 57 936 l 71 951 l 154 949 l 200 929 l 200 996 l 257 1056 z "},"+":{"ha":585,"x_min":42,"x_max":543,"o":"m 317 667 l 347 667 l 347 472 l 543 472 l 543 439 l 460 363 l 347 363 l 347 249 l 271 165 l 238 165 l 238 363 l 42 363 l 42 393 l 125 472 l 238 472 l 238 583 l 317 667 z "},",":{"ha":308,"x_min":54,"x_max":239,"o":"m 71 89 l 71 89 l 71 146 q 128 172 71 150 q 195 193 186 193 q 222 169 204 193 q 239 121 239 146 l 239 121 l 239 47 q 206 -78 239 6 q 117 -194 172 -162 l 117 -194 l 54 -136 q 90 -84 79 -126 q 101 -6 101 -42 l 101 -6 q 86 26 101 0 q 71 89 71 53 z "},"-":{"ha":529,"x_min":42,"x_max":488,"o":"m 125 472 l 488 472 l 488 439 l 404 363 l 42 363 l 42 393 l 125 472 z "},".":{"ha":307,"x_min":69,"x_max":238,"o":"m 69 89 l 69 89 l 69 174 q 127 199 69 178 q 194 221 185 221 q 220 197 203 221 q 238 149 238 174 l 238 149 l 238 47 q 182 22 238 43 q 114 0 126 0 q 85 24 101 0 q 69 89 69 49 z "},"/":{"ha":250,"x_min":-92,"x_max":390,"o":"m 390 1013 l 43 0 l -61 -53 l -92 -53 l 254 958 l 356 1013 l 390 1013 z "},":":{"ha":307,"x_min":69,"x_max":238,"o":"m 69 89 l 69 89 l 69 174 q 127 199 69 178 q 194 221 185 221 q 220 197 203 221 q 238 149 238 174 l 238 149 l 238 47 q 182 22 238 43 q 114 0 126 0 q 85 24 101 0 q 69 89 69 49 z m 69 475 l 69 475 l 69 560 q 127 585 69 564 q 194 607 185 607 q 220 583 203 607 q 238 535 238 560 l 238 535 l 238 433 q 182 408 238 429 q 114 386 126 386 q 85 410 101 386 q 69 475 69 435 z "},";":{"ha":306,"x_min":54,"x_max":239,"o":"m 68 475 l 68 475 l 68 560 q 126 585 68 564 q 192 607 183 607 q 219 583 201 607 q 236 535 236 560 l 236 535 l 236 433 q 181 408 236 429 q 113 386 125 386 q 84 410 100 386 q 68 475 68 435 z m 71 89 l 71 89 l 71 146 q 128 172 71 150 q 195 193 186 193 q 222 169 204 193 q 239 121 239 146 l 239 121 l 239 47 q 206 -78 239 6 q 117 -194 172 -162 l 117 -194 l 54 -136 q 90 -84 79 -126 q 101 -6 101 -42 l 101 -6 q 86 26 101 0 q 71 89 71 53 z "},"?":{"ha":571,"x_min":31,"x_max":501,"o":"m 335 842 q 323 927 335 903 q 284 951 311 951 q 235 924 257 951 l 235 924 l 235 810 q 224 765 235 778 q 194 744 213 753 l 194 744 l 50 675 l 31 694 q 68 783 68 736 l 68 783 l 68 942 q 215 1010 68 950 q 387 1069 361 1069 q 457 1008 413 1069 q 501 913 501 946 l 501 913 l 501 672 q 434 575 501 636 q 300 471 367 514 l 300 471 l 233 428 l 233 389 q 248 322 233 346 q 278 294 263 297 l 278 294 l 292 292 l 292 261 q 147 182 157 182 q 103 213 138 182 q 69 272 69 243 l 69 272 l 69 460 q 160 530 69 475 q 293 620 251 585 q 335 681 335 656 l 335 681 l 335 842 z m 68 -22 l 68 -22 l 68 63 q 126 88 68 67 q 192 110 183 110 q 219 86 201 110 q 236 38 236 63 l 236 38 l 236 -64 q 181 -90 236 -68 q 113 -111 125 -111 q 84 -87 100 -111 q 68 -22 68 -62 z "},"@":{"ha":750,"x_min":69,"x_max":681,"o":"m 260 -4 l 260 -4 q 208 -94 240 -44 l 208 -94 q 117 -28 165 -94 q 69 131 69 38 l 69 131 l 69 715 q 288 792 69 726 q 546 857 506 857 l 546 857 q 627 794 574 857 q 681 679 681 731 l 681 679 l 681 161 l 471 119 q 417 179 418 146 l 417 179 q 303 119 326 119 q 252 158 281 119 q 224 253 224 197 l 224 253 l 224 557 q 328 601 224 563 q 447 640 432 640 q 493 603 463 640 q 524 535 524 565 l 524 535 l 524 263 q 571 197 524 204 l 571 197 l 601 197 l 601 600 q 584 744 601 713 q 508 775 567 775 q 358 749 449 775 q 207 697 268 724 l 207 697 l 146 672 l 146 161 q 169 25 146 54 q 260 -4 193 -4 z m 379 206 l 379 206 q 417 221 399 206 l 417 221 l 417 489 q 368 554 417 554 l 368 554 q 333 543 350 554 l 333 543 l 333 272 q 379 206 333 206 z "},"A":{"ha":599,"x_min":-14,"x_max":597,"o":"m 69 142 l 69 142 l 69 939 q 228 1008 69 949 q 410 1067 386 1067 q 481 1010 433 1067 q 529 907 529 953 l 529 907 l 529 543 l 597 543 l 597 510 l 529 475 l 529 206 q 596 115 529 129 l 596 115 l 596 85 l 444 0 q 388 41 414 13 q 361 94 361 69 l 361 94 l 361 475 l 236 475 l 236 214 q 247 140 236 163 q 293 118 258 118 l 293 118 l 293 75 l 8 -44 l -14 0 q 44 36 17 0 l 44 36 q 69 142 69 71 z m 290 938 l 290 938 q 236 917 263 938 l 236 917 l 236 507 l 318 543 l 361 543 l 361 835 q 290 938 361 938 z "},"B":{"ha":585,"x_min":13,"x_max":529,"o":"m 236 972 l 236 972 q 405 1065 393 1065 q 444 1044 417 1065 q 500 984 472 1022 q 528 910 528 946 l 528 910 l 528 676 q 414 596 528 644 l 414 596 q 486 534 443 588 q 529 438 529 481 l 529 438 l 529 129 q 377 59 529 118 q 191 0 225 0 q 113 60 157 0 q 69 203 69 119 l 69 203 l 69 869 q 13 957 69 944 l 13 957 l 13 988 l 153 1067 q 210 1026 183 1054 q 236 972 236 997 z m 307 128 l 307 128 q 361 150 333 128 l 361 150 l 361 365 q 290 468 361 468 l 290 468 q 236 447 263 468 l 236 447 l 236 231 q 307 128 236 128 z m 361 833 q 345 898 361 871 q 299 925 329 925 q 236 883 269 925 l 236 883 l 236 596 q 361 746 361 631 l 361 746 l 361 833 z "},"C":{"ha":561,"x_min":69,"x_max":547,"o":"m 261 935 l 261 935 q 236 921 247 935 l 236 921 l 236 347 q 243 253 236 289 q 274 183 250 218 l 274 183 q 483 117 319 117 l 483 117 l 483 76 q 381 38 476 76 q 264 0 285 0 l 264 0 q 132 80 194 0 q 69 249 69 160 l 69 249 l 69 942 q 228 1010 69 951 q 411 1069 388 1069 l 411 1069 q 431 1029 419 1069 q 456 932 442 989 q 487 848 471 875 q 547 821 503 821 l 547 821 l 547 793 q 444 744 517 779 q 365 708 371 708 l 365 708 q 313 822 344 708 q 261 935 281 935 z "},"D":{"ha":599,"x_min":13,"x_max":529,"o":"m 529 910 l 529 910 l 529 129 q 377 59 529 118 q 191 0 225 0 q 113 60 157 0 q 69 203 69 119 l 69 203 l 69 869 q 13 957 69 944 l 13 957 l 13 988 l 153 1067 q 210 1026 183 1054 q 236 972 236 997 l 236 972 l 408 1069 q 481 1013 433 1069 q 529 910 529 956 z m 307 128 l 307 128 q 361 150 333 128 l 361 150 l 361 806 q 290 904 361 904 l 290 904 q 236 883 263 904 l 236 883 l 236 231 q 307 128 236 128 z "},"E":{"ha":561,"x_min":69,"x_max":547,"o":"m 261 935 l 261 935 q 236 921 247 935 l 236 921 l 236 554 l 432 554 l 432 521 l 363 486 l 236 486 l 236 347 q 267 167 236 193 l 267 167 q 367 122 313 128 q 483 117 421 117 l 483 117 l 483 76 q 381 38 476 76 q 264 0 285 0 l 264 0 q 145 67 221 0 q 69 211 69 133 l 69 211 l 69 942 q 228 1010 69 951 q 411 1069 388 1069 l 411 1069 q 431 1029 419 1069 q 456 932 442 989 q 487 848 471 875 q 547 821 503 821 l 547 821 l 547 793 q 444 744 517 779 q 365 708 371 708 l 365 708 q 313 822 344 708 q 261 935 281 935 z "},"F":{"ha":488,"x_min":-14,"x_max":547,"o":"m 261 935 l 261 935 q 236 921 247 935 l 236 921 l 236 543 l 418 543 l 418 510 l 349 475 l 236 475 l 236 214 q 247 140 236 163 q 293 118 258 118 l 293 118 l 293 75 l 8 -44 l -14 0 q 44 36 17 0 l 44 36 q 69 142 69 71 l 69 142 l 69 942 q 228 1010 69 951 q 411 1069 388 1069 l 411 1069 q 431 1029 419 1069 q 456 932 442 989 q 487 848 471 875 q 547 821 503 821 l 547 821 l 547 793 q 444 744 517 779 q 365 708 371 708 l 365 708 q 313 822 344 708 q 261 935 281 935 z "},"G":{"ha":585,"x_min":69,"x_max":547,"o":"m 307 128 l 307 128 q 361 150 333 128 l 361 150 l 361 329 q 304 425 361 414 l 304 425 l 304 456 l 444 535 q 501 494 474 522 q 529 440 529 465 l 529 440 l 529 129 q 377 59 529 118 q 191 0 225 0 q 113 60 157 0 q 69 203 69 119 l 69 203 l 69 942 q 228 1010 69 951 q 411 1069 388 1069 l 411 1069 q 431 1029 419 1069 q 456 932 442 989 q 487 848 471 875 q 547 821 503 821 l 547 821 l 547 793 q 444 744 517 779 q 365 708 371 708 l 365 708 q 313 822 344 708 q 261 935 281 935 l 261 935 q 236 921 247 935 l 236 921 l 236 231 q 307 128 236 128 z "},"H":{"ha":597,"x_min":-14,"x_max":611,"o":"m 306 568 l 361 568 l 361 813 q 350 886 361 864 q 304 908 339 908 l 304 908 l 304 951 l 589 1071 l 611 1026 q 553 990 581 1026 l 553 990 q 528 885 528 956 l 528 885 l 528 568 l 597 568 l 597 535 l 528 500 l 528 206 q 585 110 528 121 l 585 110 l 585 79 l 444 0 q 388 41 414 13 q 361 94 361 69 l 361 94 l 361 500 l 236 500 l 236 214 q 247 140 236 163 q 293 118 258 118 l 293 118 l 293 75 l 8 -44 l -14 0 q 44 36 17 0 l 44 36 q 69 142 69 71 l 69 142 l 69 864 q 13 960 69 949 l 13 960 l 13 990 l 153 1069 q 210 1028 183 1057 q 236 975 236 1000 l 236 975 l 236 531 l 306 568 z "},"I":{"ha":306,"x_min":-14,"x_max":319,"o":"m 69 178 l 69 178 l 69 813 q 58 886 69 864 q 13 908 47 908 l 13 908 l 13 951 l 297 1071 l 319 1026 q 261 990 289 1026 l 261 990 q 236 885 236 956 l 236 885 l 236 232 q 249 178 236 194 q 292 163 261 163 l 292 163 l 292 124 q 8 0 10 0 l 8 0 l -14 44 q 13 54 -3 44 q 40 76 29 64 l 40 76 q 69 178 69 110 z "},"J":{"ha":306,"x_min":-64,"x_max":292,"o":"m 69 157 l 69 157 l 69 797 q -53 853 69 853 l -53 853 l -53 892 q 269 1069 128 986 l 269 1069 l 292 1025 q 276 1015 286 1022 q 251 969 267 1007 q 236 875 236 931 l 236 875 l 236 147 q 224 -55 236 39 q 193 -199 211 -149 q 156 -250 175 -250 l 156 -250 q 66 -229 121 -250 q -26 -187 11 -208 l -26 -187 l -64 -167 l -64 -125 l -17 -125 q 51 -61 32 -125 q 69 157 69 3 z "},"K":{"ha":592,"x_min":-14,"x_max":621,"o":"m 528 885 l 528 617 q 378 546 531 607 l 378 546 q 397 449 378 517 q 448 308 417 382 q 526 179 479 235 q 621 124 574 124 l 621 124 l 621 82 q 457 0 492 0 l 457 0 q 326 213 408 0 q 243 499 243 425 l 243 499 l 236 496 l 236 214 q 247 140 236 163 q 293 118 258 118 l 293 118 l 293 75 l 8 -44 l -14 0 q 44 36 17 0 l 44 36 q 69 142 69 71 l 69 142 l 69 861 q 13 957 69 946 l 13 957 l 13 988 l 153 1067 q 210 1026 183 1054 q 236 974 236 997 l 236 974 l 236 561 q 317 584 272 561 q 361 632 361 607 l 361 632 l 361 813 q 350 886 361 864 q 304 908 339 908 l 304 908 l 304 951 l 589 1071 l 611 1026 q 553 990 581 1026 l 553 990 q 528 885 528 956 l 528 885 z "},"L":{"ha":511,"x_min":13,"x_max":483,"o":"m 69 210 l 69 210 l 69 813 q 58 886 69 864 q 13 908 47 908 l 13 908 l 13 951 l 297 1071 l 319 1026 q 261 990 289 1026 l 261 990 q 236 885 236 956 l 236 885 l 236 317 q 256 183 236 206 l 256 183 q 321 133 289 142 l 321 133 q 483 117 394 117 l 483 117 l 483 78 q 273 0 299 0 q 203 23 247 0 q 114 97 158 46 q 69 210 69 149 z "},"M":{"ha":889,"x_min":-14,"x_max":888,"o":"m 69 142 l 69 142 l 69 843 q 50 922 69 889 q 1 956 31 956 l 1 956 l 1 986 q 153 1071 11 988 l 153 1071 q 176 1063 163 1068 q 213 1036 190 1058 q 236 985 236 1014 l 236 985 q 283 1011 244 989 l 283 1011 q 410 1069 386 1069 q 465 1044 435 1069 q 510 985 494 1019 l 510 985 q 567 1014 513 986 l 567 1014 q 697 1069 675 1069 l 697 1069 q 781 1011 742 1069 q 819 904 819 953 l 819 904 l 819 206 q 888 115 819 129 l 888 115 l 888 85 l 736 0 q 679 41 706 13 q 653 94 653 69 l 653 94 l 653 775 q 626 891 653 858 q 528 926 599 924 l 528 926 l 528 206 q 596 115 528 129 l 596 115 l 596 85 l 444 0 q 388 41 414 13 q 361 94 361 69 l 361 94 l 361 775 q 335 894 361 863 q 236 926 310 926 l 236 926 l 236 214 q 247 140 236 163 q 293 118 258 118 l 293 118 l 293 75 l 8 -44 l -14 0 q 44 36 17 0 l 44 36 q 69 142 69 71 z "},"N":{"ha":597,"x_min":-14,"x_max":596,"o":"m 69 158 l 69 158 l 69 843 q 50 922 69 889 q 1 956 31 956 l 1 956 l 1 986 q 153 1071 11 988 l 153 1071 q 176 1063 163 1068 q 213 1036 190 1058 q 236 985 236 1014 l 236 985 q 283 1011 244 989 l 283 1011 q 406 1069 386 1069 l 406 1069 q 489 1011 450 1069 q 528 904 528 953 l 528 904 l 528 206 q 596 115 528 129 l 596 115 l 596 85 l 444 0 q 388 41 414 13 q 361 94 361 69 l 361 94 l 361 775 q 335 894 361 863 q 236 926 310 926 l 236 926 l 236 214 q 250 138 236 158 q 293 118 264 118 l 293 118 l 293 75 l 8 -44 l -14 0 q 40 33 14 0 l 40 33 q 69 158 69 72 z "}}}
